<svg width="829" height="484" viewBox="0 0 829 484" fill="none" xmlns="http://www.w3.org/2000/svg">
<g clip-path="url(#clip0_72_44)">
<path d="M502.5 269H17C12.4929 268.995 8.17181 267.202 4.98479 264.015C1.79778 260.828 0.00508102 256.507 7.15256e-06 252V17C0.00508102 12.4929 1.79778 8.17181 4.98479 4.98479C8.17181 1.79777 12.4929 0.00507387 17 0H502.5C507.007 0.00507387 511.328 1.79777 514.515 4.98479C517.702 8.17181 519.495 12.4929 519.5 17V252C519.495 256.507 517.702 260.828 514.515 264.015C511.328 267.202 507.007 268.995 502.5 269ZM17 2C13.0231 2.0045 9.21044 3.58629 6.39837 6.39836C3.5863 9.21043 2.00451 13.0231 2.00001 17V252C2.00451 255.977 3.5863 259.79 6.39837 262.602C9.21044 265.414 13.0231 266.996 17 267H502.5C506.477 266.996 510.29 265.414 513.102 262.602C515.914 259.79 517.495 255.977 517.5 252V17C517.495 13.0231 515.914 9.21043 513.102 6.39836C510.29 3.58629 506.477 2.0045 502.5 2H17Z" fill="#3F3D56"/>
<path d="M93.25 58.5C98.2206 58.5 102.25 54.4706 102.25 49.5C102.25 44.5294 98.2206 40.5 93.25 40.5C88.2794 40.5 84.25 44.5294 84.25 49.5C84.25 54.4706 88.2794 58.5 93.25 58.5Z" fill="#CCCCCC"/>
<path d="M93.25 92.5C98.2206 92.5 102.25 88.4706 102.25 83.5C102.25 78.5294 98.2206 74.5 93.25 74.5C88.2794 74.5 84.25 78.5294 84.25 83.5C84.25 88.4706 88.2794 92.5 93.25 92.5Z" fill="#CCCCCC"/>
<path d="M93.25 126.5C98.2206 126.5 102.25 122.471 102.25 117.5C102.25 112.529 98.2206 108.5 93.25 108.5C88.2794 108.5 84.25 112.529 84.25 117.5C84.25 122.471 88.2794 126.5 93.25 126.5Z" fill="#CCCCCC"/>
<path d="M93.25 160.5C98.2206 160.5 102.25 156.471 102.25 151.5C102.25 146.529 98.2206 142.5 93.25 142.5C88.2794 142.5 84.25 146.529 84.25 151.5C84.25 156.471 88.2794 160.5 93.25 160.5Z" fill="#CCCCCC"/>
<path d="M244.75 228.5C249.721 228.5 253.75 224.471 253.75 219.5C253.75 214.529 249.721 210.5 244.75 210.5C239.779 210.5 235.75 214.529 235.75 219.5C235.75 224.471 239.779 228.5 244.75 228.5Z" fill="#CCCCCC"/>
<path d="M179.75 228.5C184.721 228.5 188.75 224.471 188.75 219.5C188.75 214.529 184.721 210.5 179.75 210.5C174.779 210.5 170.75 214.529 170.75 219.5C170.75 224.471 174.779 228.5 179.75 228.5Z" fill="#CCCCCC"/>
<path d="M378.75 228.5C383.721 228.5 387.75 224.471 387.75 219.5C387.75 214.529 383.721 210.5 378.75 210.5C373.779 210.5 369.75 214.529 369.75 219.5C369.75 224.471 373.779 228.5 378.75 228.5Z" fill="#CCCCCC"/>
<path d="M310.75 228.5C315.721 228.5 319.75 224.471 319.75 219.5C319.75 214.529 315.721 210.5 310.75 210.5C305.779 210.5 301.75 214.529 301.75 219.5C301.75 224.471 305.779 228.5 310.75 228.5Z" fill="#CCCCCC"/>
<path d="M434.25 50.5H138.25C137.985 50.5 137.73 50.3946 137.543 50.2071C137.355 50.0196 137.25 49.7652 137.25 49.5C137.25 49.2348 137.355 48.9804 137.543 48.7929C137.73 48.6054 137.985 48.5 138.25 48.5H434.25C434.515 48.5 434.77 48.6054 434.957 48.7929C435.145 48.9804 435.25 49.2348 435.25 49.5C435.25 49.7652 435.145 50.0196 434.957 50.2071C434.77 50.3946 434.515 50.5 434.25 50.5Z" fill="#CCCCCC"/>
<path d="M434.25 84.5H138.25C137.985 84.5 137.73 84.3946 137.543 84.2071C137.355 84.0196 137.25 83.7652 137.25 83.5C137.25 83.2348 137.355 82.9804 137.543 82.7929C137.73 82.6054 137.985 82.5 138.25 82.5H434.25C434.515 82.5 434.77 82.6054 434.957 82.7929C435.145 82.9804 435.25 83.2348 435.25 83.5C435.25 83.7652 435.145 84.0196 434.957 84.2071C434.77 84.3946 434.515 84.5 434.25 84.5Z" fill="#CCCCCC"/>
<path d="M434.25 118.5H138.25C137.985 118.5 137.73 118.395 137.543 118.207C137.355 118.02 137.25 117.765 137.25 117.5C137.25 117.235 137.355 116.98 137.543 116.793C137.73 116.605 137.985 116.5 138.25 116.5H434.25C434.515 116.5 434.77 116.605 434.957 116.793C435.145 116.98 435.25 117.235 435.25 117.5C435.25 117.765 435.145 118.02 434.957 118.207C434.77 118.395 434.515 118.5 434.25 118.5Z" fill="#CCCCCC"/>
<path d="M434.25 152.5H138.25C137.985 152.5 137.73 152.395 137.543 152.207C137.355 152.02 137.25 151.765 137.25 151.5C137.25 151.235 137.355 150.98 137.543 150.793C137.73 150.605 137.985 150.5 138.25 150.5H434.25C434.515 150.5 434.77 150.605 434.957 150.793C435.145 150.98 435.25 151.235 435.25 151.5C435.25 151.765 435.145 152.02 434.957 152.207C434.77 152.395 434.515 152.5 434.25 152.5Z" fill="#CCCCCC"/>
<path d="M194.25 186.5H165.25C163.924 186.498 162.654 185.971 161.716 185.034C160.779 184.096 160.252 182.826 160.25 181.5V154.5C160.252 153.174 160.779 151.904 161.716 150.966C162.654 150.029 163.924 149.502 165.25 149.5H194.25C195.576 149.502 196.846 150.029 197.784 150.966C198.721 151.904 199.248 153.174 199.25 154.5V181.5C199.248 182.826 198.721 184.096 197.784 185.034C196.846 185.971 195.576 186.498 194.25 186.5Z" fill="#09B7FF"/>
<path d="M259.25 186.5H230.25C228.924 186.498 227.653 185.971 226.716 185.034C225.779 184.096 225.252 182.826 225.25 181.5V120.5C225.252 119.174 225.779 117.904 226.716 116.966C227.653 116.029 228.924 115.502 230.25 115.5H259.25C260.576 115.502 261.846 116.029 262.784 116.966C263.721 117.904 264.248 119.174 264.25 120.5V181.5C264.248 182.826 263.721 184.096 262.784 185.034C261.846 185.971 260.576 186.498 259.25 186.5Z" fill="#09B7FF"/>
<path d="M325.25 186.5H296.25C294.924 186.498 293.653 185.971 292.716 185.034C291.779 184.096 291.252 182.826 291.25 181.5V86.5C291.252 85.1744 291.779 83.9035 292.716 82.9662C293.653 82.0288 294.924 81.5015 296.25 81.5H325.25C326.576 81.5015 327.846 82.0288 328.784 82.9662C329.721 83.9035 330.248 85.1744 330.25 86.5V181.5C330.248 182.826 329.721 184.096 328.784 185.034C327.846 185.971 326.576 186.498 325.25 186.5Z" fill="#09B7FF"/>
<path d="M393.25 186.5H364.25C362.924 186.498 361.654 185.971 360.716 185.034C359.779 184.096 359.251 182.826 359.25 181.5V53.5C359.251 52.1744 359.779 50.9035 360.716 49.9662C361.654 49.0288 362.924 48.5015 364.25 48.5H393.25C394.576 48.5015 395.846 49.0288 396.784 49.9662C397.721 50.9035 398.248 52.1744 398.25 53.5V181.5C398.248 182.826 397.721 184.096 396.784 185.034C395.846 185.971 394.576 186.498 393.25 186.5Z" fill="#09B7FF"/>
<path d="M663.453 478.344C654.46 470.746 648.998 458.742 650.431 447.056C651.863 435.371 660.735 424.628 672.244 422.147C683.752 419.665 696.871 426.534 700.367 437.776C702.291 416.102 704.508 393.519 716.031 375.061C726.465 358.348 744.538 346.389 764.124 344.25C783.71 342.11 804.332 350.191 816.548 365.65C828.763 381.109 831.754 403.584 823.199 421.333C816.896 434.407 805.285 444.138 793.119 452.054C753.808 477.418 706.659 487.733 660.347 481.1L663.453 478.344Z" fill="#F2F2F2"/>
<path d="M797.179 350.639C781.018 363.802 766.192 378.525 752.915 394.593C732.137 419.654 715.323 447.751 703.059 477.907C702.162 480.107 705.734 481.065 706.622 478.889C726.687 429.88 758.721 386.684 799.791 353.251C801.636 351.749 799.008 349.149 797.179 350.639Z" fill="white"/>
<path d="M568.61 203.058C567.473 203.055 566.339 202.941 565.224 202.718C565.02 202.678 564.816 202.634 564.613 202.587L319.716 145.567C317.056 144.948 315.289 143.274 315.605 141.674C315.739 141.203 316 140.778 316.36 140.446C316.72 140.114 317.164 139.888 317.645 139.792C318.827 139.466 320.071 139.439 321.267 139.711L567.684 191.173C573.233 192.332 577.085 195.737 576.453 198.925C576.123 200.593 574.654 201.887 572.316 202.567C571.11 202.904 569.862 203.069 568.61 203.058Z" fill="#3F3D56"/>
<path d="M516.732 195.169C517.999 195.914 519.414 196.372 520.878 196.511C522.341 196.649 523.818 196.466 525.202 195.972C526.587 195.479 527.847 194.688 528.893 193.655C529.939 192.622 530.746 191.372 531.257 189.994L566.984 190.739L557.086 175.026L524.677 176.728C522.304 176.023 519.755 176.214 517.513 177.263C515.272 178.312 513.492 180.146 512.513 182.42C511.534 184.693 511.422 187.246 512.2 189.596C512.977 191.946 514.59 193.929 516.732 195.169Z" fill="#FFB8B8"/>
<path d="M532.25 189.462L532.064 178.511C532.05 177.381 532.46 176.286 533.213 175.443C533.966 174.6 535.007 174.069 536.132 173.955L600.333 167.76L653.823 150.222C655.438 149.692 657.141 149.489 658.835 149.624C660.529 149.759 662.178 150.229 663.689 151.007C665.199 151.786 666.54 152.856 667.632 154.157C668.725 155.458 669.549 156.964 670.054 158.586C670.56 160.208 670.739 161.914 670.579 163.606C670.42 165.297 669.926 166.94 669.126 168.439C668.325 169.938 667.235 171.263 665.919 172.336C664.602 173.41 663.085 174.212 661.456 174.694L602.249 192.224L536.862 193.885C535.874 193.909 534.905 193.607 534.105 193.026C533.305 192.446 532.718 191.618 532.434 190.671C532.318 190.278 532.256 189.871 532.25 189.462Z" fill="#3F3D56"/>
<path d="M627.258 471.782L614.998 471.781L609.166 424.493L627.26 424.494L627.258 471.782Z" fill="#FFB8B8"/>
<path d="M630.385 483.666L590.854 483.664V483.164C590.854 481.144 591.252 479.143 592.025 477.276C592.799 475.409 593.932 473.713 595.361 472.284C596.79 470.856 598.486 469.722 600.353 468.949C602.219 468.176 604.22 467.778 606.241 467.778H606.242L630.385 467.779L630.385 483.666Z" fill="#2F2E41"/>
<path d="M663.258 471.782L650.998 471.781L645.166 424.493L663.26 424.494L663.258 471.782Z" fill="#FFB8B8"/>
<path d="M666.385 483.666L626.854 483.664V483.164C626.854 481.144 627.252 479.143 628.025 477.276C628.799 475.409 629.932 473.713 631.361 472.284C632.79 470.856 634.486 469.722 636.353 468.949C638.219 468.176 640.22 467.778 642.241 467.778H642.242L666.385 467.779L666.385 483.666Z" fill="#2F2E41"/>
<path d="M671.486 280.674L668.559 454.368C668.549 454.918 668.427 455.46 668.198 455.961C667.97 456.461 667.641 456.909 667.232 457.277C666.822 457.644 666.341 457.923 665.819 458.097C665.297 458.27 664.745 458.334 664.197 458.284L649.851 456.98C648.91 456.894 648.029 456.478 647.366 455.806C646.702 455.133 646.298 454.247 646.225 453.305L637.826 344.96C637.806 344.706 637.69 344.468 637.501 344.297C637.312 344.125 637.064 344.033 636.809 344.038C636.554 344.043 636.31 344.145 636.128 344.324C635.946 344.503 635.839 344.745 635.83 345L631.632 455.825C631.593 456.859 631.154 457.838 630.409 458.555C629.664 459.273 628.669 459.674 627.635 459.674H612.249C611.23 459.674 610.25 459.285 609.508 458.587C608.766 457.889 608.319 456.935 608.256 455.918L597.486 279.674L661.486 263.674L671.486 280.674Z" fill="#2F2E41"/>
<path d="M625.065 117.578C638.629 117.578 649.626 106.581 649.626 93.0165C649.626 79.4518 638.629 68.4554 625.065 68.4554C611.5 68.4554 600.504 79.4518 600.504 93.0165C600.504 106.581 611.5 117.578 625.065 117.578Z" fill="#FFB8B8"/>
<path d="M595.295 285.841C594.869 285.43 594.529 284.939 594.295 284.395C594.061 283.852 593.937 283.268 593.93 282.676L592.273 164.234C592.174 158.208 593.986 152.307 597.451 147.376C600.915 142.446 605.853 138.74 611.555 136.792C613.856 126.353 626.103 125.045 633.243 125.201C635.024 125.24 636.771 125.707 638.334 126.564C639.897 127.421 641.23 128.642 642.22 130.124L647.338 137.801L658.618 144.413C663.839 147.46 667.956 152.087 670.377 157.625C672.798 163.164 673.398 169.328 672.088 175.23L670.352 183.129C664.236 211.088 664.818 240.097 672.05 267.789L675.544 281.113C675.726 281.807 675.74 282.535 675.584 283.235C675.427 283.935 675.106 284.588 674.646 285.139C674.187 285.689 673.602 286.122 672.941 286.401C672.28 286.68 671.562 286.796 670.846 286.741L666.788 286.429C665.734 286.349 664.742 285.9 663.986 285.162C663.231 284.423 662.759 283.442 662.655 282.391L661.984 275.674C661.971 275.551 661.913 275.436 661.821 275.353C661.73 275.27 661.61 275.224 661.486 275.224C661.362 275.224 661.242 275.27 661.15 275.353C661.059 275.436 661.001 275.551 660.988 275.674L660.338 282.177C660.229 283.275 659.719 284.295 658.906 285.042C658.093 285.79 657.034 286.212 655.93 286.229L598.499 287.112C598.475 287.112 598.451 287.113 598.427 287.113C597.257 287.116 596.132 286.659 595.295 285.841Z" fill="#3F3D56"/>
<path d="M626.986 107.174C627.087 110.646 629.497 112.655 632.456 114.473C635.416 116.292 638.875 117.08 642.264 117.841C642.72 118.083 643.229 118.203 643.745 118.19C644.26 118.178 644.763 118.033 645.206 117.769C645.649 117.505 646.016 117.132 646.272 116.684C646.529 116.237 646.666 115.732 646.67 115.216L649.778 103.393C650.878 99.6164 651.678 95.7587 652.171 91.8561C652.92 84.347 651.14 76.2691 645.899 70.8398C640.658 65.4105 631.568 63.4818 625.287 67.665C617.834 58.1453 583.764 79.178 592.168 85.7979C593.663 86.9755 595.949 85.4854 597.847 85.3409C599.744 85.1965 601.871 85.5303 603.077 87.0031C604.652 88.9273 603.966 91.7936 604.615 94.194C604.883 95.0386 605.316 95.8217 605.889 96.4981C606.461 97.1745 607.162 97.7308 607.951 98.1351C608.739 98.5393 609.6 98.7834 610.484 98.8533C611.367 98.9232 612.256 98.8175 613.098 98.5423C614.667 97.7692 616.143 96.8202 617.498 95.7137C618.954 94.7442 620.793 94.0277 622.432 94.6392C624.592 95.4453 625.359 98.0896 625.554 100.387C625.883 102.678 626.362 104.945 626.986 107.174Z" fill="#2F2E41"/>
<path d="M808.931 484H427.931C427.666 484 427.412 483.895 427.224 483.707C427.036 483.52 426.931 483.265 426.931 483C426.931 482.735 427.036 482.48 427.224 482.293C427.412 482.105 427.666 482 427.931 482H808.931C809.196 482 809.451 482.105 809.638 482.293C809.826 482.48 809.931 482.735 809.931 483C809.931 483.265 809.826 483.52 809.638 483.707C809.451 483.895 809.196 484 808.931 484Z" fill="#3F3D56"/>
<path opacity="0.2" d="M621.25 173L617.25 222L596.25 273L627.25 223L621.25 173Z" fill="black"/>
<path d="M591.34 291.992C592.486 291.072 593.416 289.911 594.066 288.592C594.715 287.273 595.067 285.828 595.097 284.358C595.128 282.888 594.835 281.43 594.241 280.085C593.646 278.741 592.764 277.543 591.657 276.576L605.036 243.44L586.833 247.116L576.919 278.019C575.419 279.987 574.692 282.437 574.877 284.905C575.062 287.373 576.146 289.688 577.923 291.41C579.7 293.133 582.048 294.143 584.521 294.25C586.993 294.358 589.42 293.554 591.34 291.992Z" fill="#FFB8B8"/>
<path d="M590.365 277.378L580.062 273.665C579 273.276 578.123 272.504 577.602 271.501C577.081 270.498 576.954 269.337 577.247 268.245L594.244 206.026L596.835 149.793C596.913 148.096 597.328 146.431 598.055 144.895C598.783 143.36 599.808 141.984 601.072 140.848C602.336 139.713 603.812 138.839 605.417 138.279C607.021 137.72 608.72 137.484 610.416 137.587C612.112 137.69 613.771 138.129 615.296 138.878C616.821 139.628 618.181 140.673 619.299 141.953C620.416 143.233 621.267 144.723 621.804 146.335C622.34 147.947 622.551 149.65 622.423 151.344L617.795 212.918L596.137 274.636C595.809 275.568 595.183 276.367 594.356 276.909C593.529 277.451 592.547 277.706 591.561 277.635C591.153 277.604 590.75 277.518 590.365 277.378Z" fill="#3F3D56"/>
<path d="M434.25 186.5H138.25C137.985 186.5 137.73 186.395 137.543 186.207C137.355 186.02 137.25 185.765 137.25 185.5C137.25 185.235 137.355 184.98 137.543 184.793C137.73 184.605 137.985 184.5 138.25 184.5H434.25C434.515 184.5 434.77 184.605 434.957 184.793C435.145 184.98 435.25 185.235 435.25 185.5C435.25 185.765 435.145 186.02 434.957 186.207C434.77 186.395 434.515 186.5 434.25 186.5Z" fill="#3F3D56"/>
</g>
<defs>
<clipPath id="clip0_72_44">
<rect width="828.078" height="484" fill="white"/>
</clipPath>
</defs>
</svg>
