<svg width="372" height="371" viewBox="0 0 372 371" fill="none" xmlns="http://www.w3.org/2000/svg">
<path fill-rule="evenodd" clip-rule="evenodd" d="M30.0297 29.68H341.67V341.32H30.0297V29.68ZM0.349731 371V0H371.35V371H0.349731ZM173.696 104.325C183.658 104.325 191.647 105.265 197.662 107.145C210.257 110.716 216.554 120.209 216.554 135.623C216.554 150.849 212.418 161.187 204.148 166.638C195.877 172.09 184.786 174.909 170.876 175.097L149.447 175.379L150.293 104.325H173.696ZM148.319 263.069L149.165 193.425H170.03L229.242 281.96H263.923C267.119 275.945 268.716 270.4 268.716 265.324L245.314 263.351L197.099 192.015C229.054 183.368 245.032 164.477 245.032 135.341C245.032 118.047 239.957 105.359 229.806 97.2762C219.467 88.8174 197.099 84.588 162.699 84.588H99.2584C98.3186 89.2873 97.8486 92.8588 97.8486 95.3024C109.127 99.0619 117.398 101.318 122.661 102.069C123.413 139.664 124.353 194.176 125.481 265.606C117.21 267.11 109.127 269.272 101.232 272.091L102.078 281.96H166.929C170.124 275.945 171.722 270.306 171.722 265.042L148.319 263.069Z" fill="white"/>
</svg>
