<svg width="40" height="41" viewBox="0 0 40 41" fill="none" xmlns="http://www.w3.org/2000/svg">
<path fill-rule="evenodd" clip-rule="evenodd" d="M3.2 3.5457H36.8V37.1457H3.2V3.5457ZM0 40.3457V0.345703H40V40.3457H0ZM18.6896 11.5937C19.7637 11.5937 20.6251 11.695 21.2736 11.8977C22.6315 12.2828 23.3104 13.3062 23.3104 14.9681C23.3104 16.6097 22.8645 17.7244 21.9728 18.3121C21.0811 18.8998 19.8853 19.2038 18.3856 19.2241L16.0752 19.2545L16.1664 11.5937H18.6896ZM15.9536 28.7089L16.0448 21.2001H18.2944L24.6784 30.7457H28.4176C28.7621 30.0972 28.9344 29.4993 28.9344 28.9521L26.4112 28.7393L21.2128 21.0481C24.6581 20.1158 26.3808 18.079 26.3808 14.9377C26.3808 13.0732 25.8336 11.7052 24.7392 10.8337C23.6245 9.9217 21.2128 9.4657 17.504 9.4657H10.664C10.5627 9.97237 10.512 10.3574 10.512 10.6209C11.728 11.0262 12.6197 11.2694 13.1872 11.3505C13.2683 15.4038 13.3696 21.2812 13.4912 28.9825C12.5995 29.1446 11.728 29.3777 10.8768 29.6817L10.968 30.7457H17.96C18.3045 30.0972 18.4768 29.4892 18.4768 28.9217L15.9536 28.7089Z" fill="#09B7FF"/>
</svg>
