<svg width="657" height="664" viewBox="0 0 657 664" fill="none" xmlns="http://www.w3.org/2000/svg">
<path fill-rule="evenodd" clip-rule="evenodd" d="M324.145 61.0982C309.811 79.1753 293.213 79.1753 274.352 61.0982C255.492 43.0211 255.492 26.4309 274.352 11.3275C293.213 -3.77584 309.811 -3.77584 324.145 11.3275C338.479 26.4309 338.479 43.0211 324.145 61.0982ZM88.0011 204.505C68.2722 229.385 45.4283 229.385 19.4693 204.505C-6.48976 179.625 -6.48976 156.791 19.4693 136.003C45.4283 115.216 68.2722 115.216 88.0011 136.003C107.73 156.791 107.73 179.625 88.0011 204.505ZM601.844 178.23C623.697 189.353 645.17 200.284 653.229 222.05C662.884 248.131 652.188 275.381 641.473 302.682C636.433 315.525 631.387 328.378 628.454 341.127C626.067 351.503 624.364 362.096 622.664 372.67C618.723 397.181 614.799 421.586 602.41 442.935C585.097 472.769 558.904 498.039 528.23 513.832C514.38 520.964 498.148 520.971 482.004 520.979C464.203 520.987 446.51 520.995 432.239 530.553C415.459 541.792 405.769 560.185 396.084 578.57C386.317 597.112 376.553 615.645 359.524 626.822C324.282 649.953 276.185 675.996 238.06 657.999C211.623 645.518 202.378 615.917 193.03 585.986C187.964 569.766 182.868 553.449 174.989 539.708C170.864 532.514 166.996 525.149 163.133 517.794C151.99 496.582 140.891 475.451 123.798 458.716C110.523 445.72 92.7411 437.443 75.1533 429.256C50.9826 418.005 27.1786 406.924 15.9451 384.001C-1.7168 347.961 6.71407 298.707 29.0372 265.353C40.486 248.247 62.1071 241.516 83.4914 234.859C106.818 227.597 129.863 220.423 139.115 199.966C149.273 177.504 138.322 146.575 128.032 117.512C115.678 82.6193 104.277 50.4174 131.503 38.7904C162.748 25.447 188.606 53.3296 215.691 82.5351C238.468 107.095 262.112 132.59 290.557 135.292C311.745 137.304 324.867 118.361 338.473 98.7177C348.725 83.9182 359.252 68.7217 373.71 61.7912C376.806 60.3073 379.956 58.7751 383.152 57.2206C420.35 39.1273 463.748 18.0185 499.96 34.9177C522.044 45.2234 528.603 70.0689 535.325 95.5327C540.266 114.251 545.295 133.303 556.645 147.16C567.969 160.987 585.019 169.666 601.844 178.23Z" fill="url(#paint0_linear_79_2)"/>
<defs>
<linearGradient id="paint0_linear_79_2" x1="89.948" y1="-160.55" x2="410.969" y2="448.053" gradientUnits="userSpaceOnUse">
<stop stop-color="#09B7FF"/>
<stop offset="1" stop-color="#60D3EA"/>
</linearGradient>
</defs>
</svg>
